PathFileType	4	(X/Y/Z)	Walk8.trc
DataRate	CameraRate	NumFrames	NumMarkers	Units	OrigDataRate	OrigDataStartFrame	OrigNumFrames
200.000000	200.000000	8	61	mm	200.000000	688	735
Frame#	Times		RCAR		LToe		LMT5		RWRR		LTB4		LMT1		LTB1		LTB3		RWRU		LLFC		RACR1		LUA1		LFA1		LElbow		STRN		LCAR		RFHD		RTH3		LACR1		LASI		LWRU		RTB2		RLFC		C7		LPSI		LWRR		RToe		RMT1		RMT5		LFHD		RPSI		LMFC		RMFC		CLAV		RTH2		RTB1		LTH3		RTB4		RTB3		LTH2		RCAL		LTH1		RASI		LTH4		RFA1		LTB2		RLMAL		RMMAL		LBHD		RBHD		RElbow		RUA1		RTH4		RBack		LMMAL		RTH1		LCAL		T10		LElbowM		LLMAL		RElbowM
			X1	Y1	Z1	X2	Y2	Z2	X3	Y3	Z3	X4	Y4	Z4	X5	Y5	Z5	X6	Y6	Z6	X7	Y7	Z7	X8	Y8	Z8	X9	Y9	Z9	X10	Y10	Z10	X11	Y11	Z11	X12	Y12	Z12	X13	Y13	Z13	X14	Y14	Z14	X15	Y15	Z15	X16	Y16	Z16	X17	Y17	Z17	X18	Y18	Z18	X19	Y19	Z19	X20	Y20	Z20	X21	Y21	Z21	X22	Y22	Z22	X23	Y23	Z23	X24	Y24	Z24	X25	Y25	Z25	X26	Y26	Z26	X27	Y27	Z27	X28	Y28	Z28	X29	Y29	Z29	X30	Y30	Z30	X31	Y31	Z31	X32	Y32	Z32	X33	Y33	Z33	X34	Y34	Z34	X35	Y35	Z35	X36	Y36	Z36	X37	Y37	Z37	X38	Y38	Z38	X39	Y39	Z39	X40	Y40	Z40	X41	Y41	Z41	X42	Y42	Z42	X43	Y43	Z43	X44	Y44	Z44	X45	Y45	Z45	X46	Y46	Z46	X47	Y47	Z47	X48	Y48	Z48	X49	Y49	Z49	X50	Y50	Z50	X51	Y51	Z51	X52	Y52	Z52	X53	Y53	Z53	X54	Y54	Z54	X55	Y55	Z55	X56	Y56	Z56	X57	Y57	Z57	X58	Y58	Z58	X59	Y59	Z59	X60	Y60	Z60	X61	Y61	Z61

688	3.44	1107.4	888.8	380.82	1180.9	32.314	-37.914	1074.2	27.209	-107.52	1044.6	918.76	367.56	1007.1	284.55	-26.262	1126	47.305	-18.58	1013.5	368.48	-34.607	1004.7	199.1	-19.407	1116	926.98	316.78	973.67	509.56	-144.68	1020.4	1519.1	188.28	1031.9	1357.7	-260.56	1098.4	1062.5	-311.44	1006.6	1188	-309.07	1143.2	1309.3	5.9347	1154.5	905.2	-324.16	1177.1	1700.2	83.787	1049.8	661.12	226.37	1030.8	1542.3	-181.73	1077.3	1047.6	-151.43	1077.1	931.26	-324.48	1016.4	323.43	196.22	1086.7	543.47	227.21	920.34	1577.6	5.9053	848.34	1093.9	-60.092	1151	941.22	-266.4	1033.1	47.795	145.61	997.43	76.433	120.9	938.26	74.958	200.24	1191.1	1705.3	-21.062	842.14	1083.2	48.43	980.42	512.01	-0.25164	1096	526.59	83.155	1085.5	1483.2	-6.6858	1071.6	763.78	234.27	1077.1	396.07	144.07	1002	657.7	-170.46	1025.9	325.42	134.29	976.65	256.09	123.74	1060.1	746.17	-178.59	800.5	173.08	104.06	1000.2	829.5	-203.17	1056.7	1056.4	164.17	1001.4	742.49	-187.06	1052.9	1061.6	336.89	1026.9	277.6	-86.049	861.48	175.37	157	915.12	184.57	71.693	1027.1	1714.2	-60.144	1005.8	1711.3	79.828	958.97	1184.3	317.66	999.67	1342.3	267.29	1017	738.97	228.06	855.31	1458.8	124.02	986.52	100.27	27.032	985	821.52	226.45	898.66	44.34	-24.7	863.1	1221.9	-9.1202	968.43	1159.4	-227.78	960.79	69.017	-69.895	935.79	1152.9	228.19
689	3.445	1110.6	888.96	380.62	1180.9	32.304	-37.942	1074.2	27.233	-107.52	1047.7	918.68	367.1	1008	284.33	-26.138	1126	47.295	-18.594	1014.9	368.23	-34.47	1005.3	198.92	-19.31	1119.3	927.22	316.67	975.78	509.54	-144.65	1024.3	1518.9	188.2	1036.5	1357.7	-260.76	1104	1062.8	-311.48	1011.8	1188	-309.3	1147.4	1309.2	5.744	1160.6	905.64	-324.03	1181.3	1699.9	83.903	1056.4	661.71	226.42	1035.2	1542.3	-181.85	1081.3	1047.5	-151.55	1083.1	931.44	-324.39	1027.4	322.39	196.23	1094	543.89	226.75	924.52	1577.5	5.721	852.41	1093.9	-60.014	1157	941.72	-266.31	1049.9	47.29	146.24	1013.5	75.126	121.66	954.55	72.442	200.82	1195.3	1705.1	-20.9	846.29	1083.1	48.515	982.61	511.99	-0.24075	1102.4	527.06	82.716	1089.7	1483.1	-6.8119	1077.7	764.52	234.28	1087	396.05	143.7	1004.8	657.59	-170.4	1036.9	324.54	134.19	988.96	254.17	123.93	1063.2	745.76	-178.31	814.48	167.31	104.58	1003.8	829.38	-203.05	1060.8	1056.3	164.14	1004.6	742.42	-187.06	1055.9	1061.6	336.72	1027.9	277.3	-85.924	875.47	171.04	157.49	928.92	181.34	72.104	1031.5	1714.1	-60.117	1010	1711.2	79.823	961.94	1184.3	317.51	1003.1	1342.2	267.18	1023.1	739.38	228.33	859.31	1458.8	123.72	986.63	100.32	27.085	990.71	821.8	226.8	898.65	44.36	-24.66	867.27	1221.8	-9.2058	973.55	1159.3	-228.04	960.85	69.142	-69.865	938.88	1152.9	227.92
690	3.45	1113.8	889.05	380.4	1180.9	32.296	-37.963	1074.2	27.26	-107.51	1050.9	918.57	366.65	1009	284.1	-26.006	1126.1	47.288	-18.605	1016.2	367.98	-34.344	1005.8	198.72	-19.202	1122.6	927.39	316.52	977.89	509.52	-144.61	1028.3	1518.7	188.13	1041.2	1357.7	-260.94	1109.6	1063	-311.5	1016.9	1187.9	-309.53	1151.5	1309	5.5731	1166.8	906.06	-323.84	1185.5	1699.7	84.024	1062.9	662.25	226.48	1039.5	1542.2	-181.97	1085.3	1047.4	-151.65	1089.1	931.59	-324.27	1038.5	321.35	196.25	1101.2	544.27	226.32	928.7	1577.5	5.5536	856.49	1093.8	-59.935	1163	942.19	-266.16	1066.7	46.866	146.87	1029.6	73.911	122.5	970.9	70.015	201.45	1199.6	1704.9	-20.729	850.44	1082.9	48.6	984.82	511.95	-0.23327	1108.6	527.46	82.293	1093.9	1483	-6.9231	1083.7	765.21	234.29	1096.7	395.99	143.43	1007.6	657.46	-170.35	1047.9	323.67	134.09	1001.3	252.27	124.16	1066.2	745.33	-178.01	828.63	161.55	105.12	1007.3	829.23	-202.94	1064.8	1056.1	164.17	1007.7	742.36	-187.08	1059	1061.6	336.55	1028.9	277	-85.802	889.56	166.73	158	942.83	178.14	72.538	1035.8	1714	-60.078	1014.2	1711	79.83	964.94	1184.2	317.35	1006.5	1342.1	267.08	1029.2	739.75	228.58	863.31	1458.7	123.44	986.74	100.37	27.137	996.39	822.04	227.14	898.64	44.375	-24.615	871.48	1221.7	-9.2543	978.62	1159.1	-228.3	960.92	69.259	-69.834	941.99	1152.9	227.66
691	3.455	1117	889.1	380.16	1180.9	32.29	-37.978	1074.2	27.288	-107.51	1054	918.44	366.23	1010	283.86	-25.871	1126.1	47.285	-18.615	1017.7	367.72	-34.23	1006.4	198.51	-19.087	1125.9	927.5	316.33	980.02	509.48	-144.57	1032.3	1518.5	188.07	1045.8	1357.6	-261.11	1115.1	1063.2	-311.48	1022.1	1187.7	-309.75	1155.6	1308.9	5.4237	1172.9	906.45	-323.6	1189.6	1699.4	84.151	1069.4	662.76	226.52	1043.8	1542	-182.07	1089.3	1047.2	-151.73	1095.1	931.71	-324.11	1049.5	320.33	196.31	1108.3	544.61	225.9	932.88	1577.3	5.4032	860.57	1093.7	-59.852	1169	942.65	-265.97	1083.6	46.536	147.51	1045.7	72.793	123.41	987.31	67.687	202.11	1203.9	1704.7	-20.551	854.61	1082.7	48.686	987.04	511.9	-0.23028	1114.8	527.82	81.886	1098.1	1482.8	-7.0183	1089.7	765.86	234.31	1106.3	395.92	143.24	1010.4	657.33	-170.29	1058.9	322.81	134.01	1013.7	250.38	124.43	1069.2	744.88	-177.7	842.92	155.82	105.69	1010.9	829.06	-202.82	1068.9	1055.9	164.27	1010.9	742.31	-187.12	1062.1	1061.5	336.36	1030	276.7	-85.682	903.76	162.47	158.54	956.83	174.97	72.994	1040.1	1713.9	-60.025	1018.4	1710.8	79.849	967.98	1184.2	317.2	1009.9	1341.9	266.99	1035.2	740.09	228.8	867.31	1458.6	123.18	986.85	100.4	27.189	1002	822.24	227.46	898.64	44.385	-24.566	875.72	1221.5	-9.267	983.64	1158.9	-228.57	960.98	69.367	-69.799	945.14	1152.9	227.42
692	3.46	1120.2	889.09	379.9	1180.9	32.287	-37.987	1074.2	27.316	-107.51	1057.2	918.27	365.82	1011	283.62	-25.737	1126.2	47.285	-18.622	1019.1	367.45	-34.129	1007	198.28	-18.967	1129.2	927.55	316.1	982.17	509.44	-144.52	1036.3	1518.3	188.02	1050.4	1357.5	-261.27	1120.7	1063.4	-311.43	1027.2	1187.6	-309.96	1159.7	1308.7	5.2965	1179.1	906.81	-323.31	1193.8	1699.1	84.284	1075.7	663.21	226.56	1048.1	1541.8	-182.16	1093.4	1047	-151.8	1101.2	931.8	-323.93	1060.5	319.31	196.39	1115.3	544.9	225.51	937.06	1577.2	5.2698	864.67	1093.5	-59.765	1174.9	943.08	-265.73	1100.4	46.31	148.15	1061.9	71.775	124.36	1003.8	65.47	202.81	1208.1	1704.5	-20.365	858.79	1082.5	48.772	989.27	511.84	-0.23255	1120.9	528.12	81.497	1102.3	1482.7	-7.0971	1095.6	766.45	234.32	1115.8	395.83	143.1	1013.2	657.18	-170.23	1070	321.97	133.95	1026.1	248.53	124.73	1072.1	744.43	-177.37	857.35	150.12	106.3	1014.4	828.86	-202.7	1072.9	1055.7	164.43	1014.1	742.28	-187.18	1065.2	1061.4	336.17	1031	276.4	-85.567	918.04	158.26	159.11	970.91	171.86	73.468	1044.3	1713.8	-59.961	1022.6	1710.6	79.88	971.06	1184.1	317.05	1013.4	1341.7	266.9	1041.2	740.38	229	871.31	1458.5	122.94	986.96	100.4	27.244	1007.6	822.41	227.77	898.64	44.39	-24.513	880.01	1221.4	-9.2458	988.62	1158.6	-228.85	961.04	69.465	-69.762	948.31	1152.8	227.19
693	3.465	1123.4	889.02	379.63	1180.9	32.284	-37.991	1074.1	27.344	-107.5	1060.4	918.07	365.44	1012	283.37	-25.605	1126.2	47.287	-18.628	1020.6	367.18	-34.039	1007.5	198.05	-18.844	1132.5	927.53	315.83	984.33	509.38	-144.45	1040.3	1518	187.99	1055	1357.4	-261.41	1126.2	1063.5	-311.34	1032.3	1187.4	-310.17	1163.9	1308.5	5.1918	1185.2	907.16	-322.96	1198	1698.8	84.422	1081.9	663.62	226.59	1052.4	1541.6	-182.24	1097.4	1046.7	-151.85	1107.2	931.86	-323.72	1071.6	318.32	196.49	1122.1	545.15	225.15	941.24	1577.1	5.1539	868.78	1093.3	-59.672	1180.9	943.49	-265.43	1117.3	46.198	148.79	1078.1	70.861	125.33	1020.3	63.37	203.53	1212.3	1704.3	-20.171	862.99	1082.3	48.86	991.53	511.76	-0.24076	1127	528.38	81.125	1106.4	1482.5	-7.1591	1101.5	766.98	234.32	1125.2	395.74	143.03	1016	657.02	-170.16	1081	321.14	133.9	1038.5	246.71	125.06	1075.1	743.96	-177.03	871.92	144.49	106.93	1018	828.65	-202.6	1076.9	1055.5	164.65	1017.3	742.26	-187.24	1068.3	1061.3	335.96	1032.1	276.1	-85.46	932.42	154.11	159.7	985.06	168.82	73.957	1048.6	1713.6	-59.886	1026.7	1710.4	79.922	974.18	1183.9	316.9	1016.9	1341.5	266.81	1047.1	740.63	229.18	875.32	1458.4	122.71	987.07	100.38	27.302	1013.2	822.54	228.06	898.65	44.391	-24.457	884.32	1221.1	-9.1924	993.56	1158.3	-229.12	961.11	69.554	-69.72	951.5	1152.7	226.98
694	3.47	1126.6	888.9	379.34	1181	32.283	-37.989	1074.1	27.37	-107.5	1063.5	917.83	365.07	1013.1	283.12	-25.48	1126.3	47.29	-18.632	1022.1	366.9	-33.959	1008.1	197.81	-18.719	1135.8	927.45	315.53	986.5	509.32	-144.38	1044.3	1517.8	187.97	1059.6	1357.2	-261.52	1131.7	1063.6	-311.23	1037.3	1187.1	-310.36	1168	1308.2	5.1097	1191.3	907.48	-322.56	1202.1	1698.5	84.565	1088.1	663.98	226.61	1056.6	1541.4	-182.31	1101.6	1046.4	-151.9	1113.3	931.9	-323.47	1082.6	317.34	196.62	1128.9	545.34	224.82	945.42	1576.9	5.0557	872.91	1093.1	-59.573	1186.7	943.88	-265.09	1134.2	46.21	149.43	1094.3	70.054	126.31	1036.8	61.394	204.27	1216.6	1704.1	-19.97	867.2	1082	48.951	993.8	511.66	-0.25551	1133	528.59	80.772	1110.6	1482.3	-7.2041	1107.3	767.44	234.3	1134.4	395.66	142.99	1018.8	656.85	-170.08	1092	320.33	133.89	1050.9	244.95	125.42	1078.1	743.47	-176.67	886.61	138.92	107.59	1021.5	828.41	-202.5	1080.9	1055.3	164.92	1020.5	742.25	-187.32	1071.5	1061.1	335.74	1033.2	275.8	-85.362	946.88	150.05	160.31	999.27	165.87	74.457	1052.9	1713.5	-59.8	1030.9	1710.1	79.976	977.34	1183.8	316.75	1020.4	1341.2	266.73	1052.9	740.84	229.34	879.34	1458.2	122.51	987.18	100.32	27.364	1018.6	822.62	228.33	898.66	44.39	-24.4	888.67	1220.9	-9.1084	998.46	1158	-229.39	961.17	69.633	-69.675	954.73	1152.5	226.77
695	3.475	1129.8	888.73	379.04	1181	32.283	-37.983	1074.1	27.392	-107.49	1066.7	917.56	364.71	1014.1	282.87	-25.361	1126.3	47.293	-18.633	1023.6	366.61	-33.885	1008.7	197.57	-18.594	1139.1	927.3	315.19	988.69	509.25	-144.29	1048.4	1517.5	187.96	1064.1	1357	-261.62	1137.2	1063.7	-311.08	1042.4	1186.9	-310.54	1172.1	1308	5.0503	1197.4	907.78	-322.12	1206.3	1698.2	84.715	1094.1	664.29	226.62	1060.9	1541.1	-182.37	1105.7	1046	-151.92	1119.3	931.91	-323.18	1093.7	316.38	196.76	1135.6	545.49	224.52	949.6	1576.7	4.9756	877.05	1092.9	-59.465	1192.6	944.25	-264.7	1151.1	46.352	150.07	1110.5	69.357	127.27	1053.4	59.547	205.03	1220.8	1703.8	-19.76	871.43	1081.7	49.045	996.09	511.55	-0.27722	1139	528.75	80.438	1114.8	1482	-7.2321	1113.1	767.85	234.26	1143.6	395.58	142.99	1021.6	656.66	-169.99	1103	319.53	133.9	1063.4	243.24	125.8	1081.1	742.99	-176.31	901.41	133.45	108.29	1025.1	828.16	-202.42	1085	1055.1	165.23	1023.7	742.24	-187.4	1074.7	1060.9	335.51	1034.3	275.49	-85.273	961.42	146.06	160.94	1013.5	163.02	74.967	1057.2	1713.3	-59.704	1035.1	1709.8	80.042	980.55	1183.6	316.6	1024	1341	266.65	1058.6	740.99	229.47	883.37	1458	122.33	987.3	100.23	27.432	1024.1	822.66	228.58	898.68	44.39	-24.342	893.05	1220.6	-8.9954	1003.3	1157.6	-229.65	961.23	69.706	-69.626	957.99	1152.4	226.57
